<svg width="325" height="155" viewBox="0 0 325 155" fill="none" xmlns="http://www.w3.org/2000/svg">
<g clip-path="url(#clip0_22_1833)">
<path d="M50.0335 101.535C49.1176 101.377 47.7295 100.895 44.5382 100.588C40.8703 100.235 33.6106 99.9053 23.7259 99.5927C23.7258 98.9201 23.7123 98.1879 23.6881 97.4078L22.2026 98.9663C22.6122 99.0288 23.0247 99.0087 23.4272 98.8847C23.8267 98.7614 24.1821 98.5463 24.4909 98.2644C24.7928 97.9888 25.0386 97.661 25.2426 97.31C25.4433 96.9646 25.6081 96.5881 25.746 96.1994C26.0158 95.439 26.2052 94.5674 26.3481 93.6586C26.4895 92.7594 26.5911 91.7856 26.6744 90.7868C26.8375 88.8316 26.9336 86.7398 27.1136 84.9004C27.2022 83.9952 27.3094 83.1685 27.4502 82.455C27.5913 81.7403 27.7541 81.2022 27.931 80.8287C28.0427 80.5929 28.0975 80.3262 28.0896 80.0576C28.0818 79.789 28.0114 79.5286 27.8863 79.3045C27.7611 79.0803 27.5858 78.901 27.3793 78.7858C27.1729 78.6707 26.9431 78.624 26.7147 78.6509C26.418 78.686 26.1648 78.7134 25.9326 78.7109C25.8227 78.7097 25.7403 78.7016 25.6777 78.6911C25.6174 78.6802 25.5924 78.6708 25.5967 78.6787C25.6013 78.6864 25.6367 78.7205 25.6626 78.7672C25.6711 78.7827 25.7176 78.897 25.6906 78.8552C25.6839 78.8443 25.6687 78.7749 25.6781 78.6249C25.6847 78.5201 25.7027 78.3843 25.7389 78.2141C26.4283 77.301 27.1151 76.5489 27.8192 75.8827C28.5777 75.1651 29.3585 74.5446 30.2028 73.9171C31.0395 73.2952 31.9334 72.6711 32.897 71.951C33.8572 71.2335 34.8831 70.4225 35.9864 69.421C36.0252 69.3858 36.0587 69.3517 36.0861 69.3196C37.146 68.0801 38.0039 66.8346 38.8551 65.6511C39.7135 64.4575 40.5901 63.2899 41.7388 62.1029C42.8879 60.9154 44.3238 59.6942 46.292 58.4289C48.2585 57.1646 50.7547 55.8574 54.0201 54.4992C66.7145 51.6057 78.6812 51.4466 90.0294 52.3477C90.1624 52.3583 90.2944 52.3321 90.414 52.2713C105.595 44.5597 120.272 37.1124 134.127 30.0957C134.224 30.0466 134.311 29.9742 134.382 29.8835C134.452 29.7928 134.505 29.686 134.537 29.5703C134.568 29.4547 134.577 29.3329 134.564 29.2134C134.55 29.094 134.514 28.9796 134.458 28.8781C134.182 28.3782 133.917 27.8925 133.667 27.424C133.558 27.2199 133.448 27.0115 133.336 26.7992C133.491 26.7209 133.64 26.644 133.787 26.5688C134.163 26.3767 134.525 26.1952 134.943 26.0188C135.355 25.8453 135.832 25.6724 136.437 25.5011C137.036 25.3314 137.767 25.1616 138.698 24.993C140.531 24.6608 143.135 24.3335 147.071 24.0128C150.923 23.6988 156.054 23.3907 163.032 23.0866C166.144 23.417 168.495 23.5213 170.812 23.6091C173.093 23.6956 175.329 23.7656 178.209 24.0308C181.064 24.2937 184.591 24.7515 189.512 25.6238C194.395 26.4895 200.661 27.7651 209.046 29.6727C220.367 32.3774 230.346 36.0614 240.96 39.7939C241.15 39.8609 241.355 39.8622 241.55 39.7976C241.744 39.733 241.921 39.6051 242.059 39.4291C243.682 37.3597 245.297 35.2992 246.876 33.2784C247.302 33.038 247.834 32.7738 248.456 32.4957C249.171 32.1764 249.989 31.8457 250.878 31.5173C252.677 30.8525 254.739 30.2073 256.797 29.6857C258.895 29.1541 260.957 28.7591 262.741 28.588C263.646 28.5013 264.462 28.4738 265.168 28.5102C265.609 28.533 265.991 28.5799 266.315 28.6466C266.362 28.8343 266.389 29.0318 266.399 29.2413C266.419 29.6685 266.367 30.1601 266.233 30.7236C266.098 31.2949 265.885 31.9135 265.608 32.5765C265.328 33.2479 264.988 33.9472 264.61 34.6678C263.837 36.1426 262.921 37.6805 262.067 39.203C261.183 40.7812 260.356 42.3592 259.793 43.8918C259.692 44.1683 259.664 44.4733 259.713 44.7681C259.763 45.0629 259.887 45.3341 260.07 45.5473C260.254 45.7605 260.488 45.9061 260.743 45.9655C260.999 46.025 261.264 45.9956 261.505 45.8811C263.946 44.7206 266.163 43.643 268.079 42.6766C278.049 65.0534 285.446 81.4326 289.294 89.5361C292.568 96.431 294.268 99.2843 295.263 101.234C294.483 99.1589 293.485 95.8952 290.582 88.7833C287.11 80.2784 279.799 63.3027 269.723 40.2286C269.588 39.9207 269.356 39.6827 269.07 39.5607C268.784 39.4386 268.465 39.4412 268.175 39.5678C266.891 40.1283 265.464 40.7722 263.919 41.4854C264.034 41.2734 264.153 41.0582 264.275 40.8397C265.063 39.4279 266.059 37.7373 266.849 36.2141C267.249 35.4422 267.63 34.6527 267.954 33.8647C268.273 33.0898 268.547 32.2926 268.73 31.4927C268.911 30.7038 269.01 29.8824 268.963 29.0575C268.915 28.2339 268.722 27.4199 268.333 26.655C268.168 26.3302 267.906 26.0908 267.6 25.9854C266.909 25.7482 266.112 25.6337 265.269 25.5988C264.428 25.5641 263.501 25.6066 262.523 25.7098C260.596 25.912 258.423 26.3507 256.258 26.9191C254.129 27.4781 251.998 28.1659 250.13 28.8781C249.207 29.2302 248.345 29.5896 247.581 29.9429C246.824 30.2926 246.149 30.6429 245.601 30.9808C245.465 31.0646 245.349 31.1697 245.261 31.29C243.828 33.2411 242.369 35.2343 240.902 37.2398C230.537 33.6895 220.62 30.1617 209.41 27.5795C200.997 25.6901 194.701 24.4319 189.781 23.5832C184.822 22.7277 181.249 22.2861 178.341 22.0408C175.412 21.7935 173.134 21.7442 170.86 21.6788C168.542 21.6121 166.216 21.5286 163.127 21.2182C163.091 21.2146 163.056 21.2136 163.023 21.2151C156.008 21.5399 150.841 21.8683 146.957 22.2024C143.001 22.5425 140.348 22.8907 138.454 23.2494C137.49 23.432 136.716 23.6184 136.068 23.8094C135.41 24.003 134.882 24.2012 134.42 24.4031C133.954 24.6066 133.556 24.8135 133.177 25.0128C132.788 25.2179 132.426 25.412 131.998 25.6122C131.898 25.6591 131.808 25.7303 131.734 25.8208C131.66 25.9114 131.604 26.019 131.571 26.1362C131.537 26.2534 131.526 26.3771 131.539 26.4988C131.552 26.6205 131.589 26.7371 131.646 26.8403C131.922 27.3402 132.186 27.8259 132.437 28.2944C132.547 28.5022 132.66 28.7145 132.773 28.9308C119.726 35.5028 105.091 42.8604 89.9473 50.465C78.5532 49.4973 66.4618 49.5769 53.5937 52.4203C53.55 52.4299 53.5051 52.4441 53.4596 52.4626C50.0859 53.8366 47.4646 55.1757 45.3652 56.4966C43.2707 57.8145 41.7039 59.1089 40.4258 60.3948C39.1519 61.6763 38.1844 62.9301 37.29 64.1344C36.4027 65.3291 35.6159 66.4338 34.6458 67.5428C33.6146 68.4455 32.6504 69.1794 31.7304 69.8389C30.791 70.5124 29.8927 71.1115 29.0092 71.7393C28.1199 72.3714 27.2455 73.0335 26.3786 73.8222C25.501 74.6208 24.6418 75.5393 23.7815 76.6754C23.684 76.8042 23.6067 76.9627 23.5543 77.1414C23.4326 77.5563 23.3483 77.9517 23.3082 78.3278C23.2677 78.7065 23.2701 79.0847 23.3357 79.4516C23.4029 79.8276 23.5343 80.1774 23.734 80.483C23.9341 80.7894 24.1776 81.0132 24.4271 81.1736C24.6744 81.3326 24.9273 81.4294 25.1567 81.4905C25.3887 81.5524 25.6164 81.5828 25.8226 81.5973C26.2306 81.6262 26.6381 81.5971 26.919 81.578L25.7027 79.4002C25.3566 80.1085 25.1211 80.9427 24.9482 81.7869C24.771 82.6515 24.6452 83.5997 24.5462 84.558C24.3426 86.5298 24.2388 88.6293 24.0765 90.4936C23.9929 91.4541 23.8966 92.3349 23.7712 93.1168C23.6426 93.9182 23.4915 94.563 23.3162 95.0531C23.2284 95.2982 23.1413 95.4857 23.0594 95.6259C22.977 95.7668 22.9074 95.8472 22.858 95.8921C22.8118 95.9341 22.777 95.9511 22.747 95.9604C22.7153 95.9697 22.6539 95.9818 22.5464 95.9651C22.3563 95.9365 22.163 95.956 21.9801 96.0221C21.7972 96.0882 21.6291 96.1994 21.4876 96.3479C21.3461 96.4963 21.2346 96.6785 21.1609 96.8816C21.0872 97.0846 21.0531 97.3038 21.0609 97.5236C21.108 98.8439 21.1767 100.024 21.2756 101.008C21.3126 101.377 21.4543 101.717 21.674 101.965C21.8937 102.212 22.1763 102.351 22.4687 102.354C32.9759 102.473 40.6864 102.456 44.5118 102.25C47.7107 102.077 49.1132 101.654 50.0335 101.535Z" fill="#F77A2C"/>
<path d="M279.431 91.1074C281.13 92.3027 286.786 96.2515 289.629 98.2795C291.685 99.7467 292.855 100.826 294.925 102.112C295.091 102.215 295.279 102.265 295.468 102.255C295.657 102.246 295.841 102.178 295.999 102.058C296.157 101.938 296.284 101.771 296.367 101.575C296.449 101.379 296.484 101.161 296.467 100.944C296.17 97.0713 295.238 91.7284 294.745 87.653C294.326 84.191 293.844 79.6381 293.664 78.0352C293.729 79.6497 293.945 84.2296 294.058 87.7226C294.168 91.1263 294.113 95.4454 294.258 99.0288C292.966 98.3392 291.794 97.8276 290.233 96.9911C287.201 95.3668 281.231 92.088 279.431 91.1074Z" fill="#F77A2C"/>
<path d="M265.867 103.875H230.352L225.28 127.693H236.836L240.235 109.514H255.983L259.382 127.693H270.939L265.867 103.875Z" fill="#0B3007"/>
<path d="M231.685 97.6143H242.366L247.939 67.4524H248.166L253.739 97.6143H264.533L252.924 43.0953H243.294L231.685 97.6143Z" fill="#0B3007"/>
<path d="M218.256 103.875H206.699V127.693H218.256V103.875Z" fill="#0B3007"/>
<path d="M206.699 97.6143H218.256V54.5021H231.624V43.0953H193.33V54.5021H206.699V97.6143Z" fill="#0B3007"/>
<path d="M171.237 42.3824C167.838 42.3824 164.892 43.0166 162.4 44.2839C159.983 45.4721 157.981 47.0952 156.395 49.1547C154.733 51.2142 153.487 53.6698 152.656 56.5214C151.825 59.373 151.41 62.3832 151.41 65.5517C151.41 70.8588 152.241 75.2947 153.902 78.8592C155.64 82.3445 159.001 85.1565 163.986 87.2952L172.257 90.8596C173.692 91.4933 174.824 92.0873 175.655 92.6418C176.561 93.1963 177.279 93.9091 177.808 94.7804C178.189 95.5137 178.439 96.4883 178.606 97.6143H190.243C190.18 96.859 190.132 96.0691 190.044 95.3747C189.742 92.9192 189.176 90.7406 188.345 88.8395C187.438 87.0177 186.192 85.4338 184.606 84.0873C183.02 82.6615 180.942 81.4333 178.374 80.4035L169.538 76.7206C168.027 76.0869 166.818 75.4527 165.912 74.8191C165.081 74.1854 164.439 73.4332 163.986 72.5619C163.533 71.6906 163.231 70.7008 163.08 69.5918C163.004 68.4829 162.966 67.0965 162.966 65.4331C162.966 64.0073 163.079 62.6603 163.306 61.393C163.533 60.0464 163.948 58.8583 164.552 57.8286C165.156 56.878 165.949 56.0857 166.931 55.4521C167.913 54.8184 169.198 54.5021 170.784 54.5021C173.729 54.5021 175.806 55.5312 177.015 57.5907C178.299 59.571 178.941 61.9479 178.941 64.7203V67.4524H190.498V61.5123C190.498 56.6012 188.76 52.2439 185.286 48.4418C183.548 46.62 181.471 45.155 179.054 44.046C176.712 42.9371 174.107 42.3824 171.237 42.3824Z" fill="#0B3007"/>
<path d="M190.49 103.875H178.937C178.933 105.702 178.86 107.388 178.714 108.919C178.639 110.424 178.299 111.732 177.694 112.841C177.09 113.95 176.222 114.821 175.089 115.455C174.031 116.009 172.521 116.286 170.557 116.286C167.612 116.286 165.496 115.415 164.212 113.672C163.004 111.851 162.4 109.831 162.4 107.613V103.875H150.844V108.326C150.844 111.177 151.335 113.831 152.317 116.286C153.374 118.662 154.771 120.762 156.508 122.583C158.245 124.405 160.323 125.831 162.74 126.861C165.157 127.89 167.763 128.406 170.557 128.406C174.258 128.406 177.393 127.772 179.961 126.504C182.529 125.237 184.606 123.495 186.192 121.277C187.702 119.138 188.798 116.564 189.478 113.554C190.138 110.553 190.472 107.324 190.49 103.875Z" fill="#0B3007"/>
<path d="M108.584 97.6143H142.686V88.7209H108.584V97.6143Z" fill="#0B3007"/>
<path d="M85.949 96.6973H104.779V29.4707H85.949V96.6973Z" fill="#0B3007"/>
<path d="M43.8594 96.6973H62.6889V29.4707H43.8594V96.6973Z" fill="#0B3007"/>
<path d="M104.778 104.417H85.949V108.879C85.949 112.591 84.8413 115.326 82.6261 117.084C80.4109 118.842 77.6418 119.721 74.3189 119.721C70.9961 119.721 68.227 118.842 66.0118 117.084C63.7966 115.326 62.6889 112.591 62.6889 108.879V104.417H43.8594V110.345C43.8594 113.764 44.6598 116.938 46.2597 119.868C47.8595 122.701 50.0748 125.24 52.9054 127.486C55.7359 129.733 58.9349 131.491 62.5039 132.76C66.1959 134.03 70.1347 134.666 74.3189 134.666C78.5032 134.666 82.4407 134.03 86.1327 132.76C89.8247 131.491 93.087 129.733 95.9175 127.486C98.7481 125.24 100.901 122.701 102.378 119.868C103.978 116.938 104.778 113.764 104.778 110.345V104.417Z" fill="#0B3007"/>
<path d="M108.584 97.6143V100.84H142.686V97.6143H108.584Z" fill="#0B3007"/>
<path d="M303.499 28.3125V25.5M303.499 22.6875V22.758M310.999 25.5C310.999 26.5781 310.771 27.6032 310.362 28.5297L311 32.9993L307.17 32.0417C306.085 32.6519 304.833 33 303.499 33C299.358 33 296 29.6421 296 25.5C296 21.3579 299.358 18 303.499 18C307.641 18 310.999 21.3579 310.999 25.5Z" stroke="#F77A2C" stroke-linecap="round" stroke-linejoin="round"/>
</g>
<defs>
<clipPath id="clip0_22_1833">
<rect width="325" height="155" fill="white"/>
</clipPath>
</defs>
</svg>
